# xmcd CD database file
#
# Track frame offsets:
#	150
#	5862
#	11439
#	16325
#	32966
#	68247
#	84684
#	115511
#	165532
#	276476
#
# Disc length: 3747 seconds
#
# Revision: 0
# Processed by: cddbd v1.5.2PL0 Copyright (c) Steve Scherf et al.
# Submitted via: CDex 1.51
#
DISCID=7e0ea10a
DTITLE=Philip Permutt - Crystal Workshop
DYEAR=2006
DGENRE=New Age
TTITLE0=Introduction
TTITLE1=Choosing your Crystals
TTITLE2=Cleansing Crystals
TTITLE3=Sensing Crystal Energy
TTITLE4=Tuning in to a Crystal
TTITLE5=Programming a Crystal
TTITLE6=Quartz Crystal
TTITLE7=Amethyst Meditation
TTITLE8=Crystal Chakra Healing Meditation
TTITLE9=Final Thoughts
EXTD=YEAR: 2006
EXTT0=
EXTT1=
EXTT2=
EXTT3=
EXTT4=
EXTT5=
EXTT6=
EXTT7=
EXTT8=
EXTT9=
PLAYORDER=
